<svg xmlns="http://www.w3.org/2000/svg" width="24" height="24" fill="none"><path fill="#000" d="M10.838 3.465c.44-1.02 1.885-1.02 2.324 0l2.09 4.851 5.259.488c1.105.102 1.552 1.477.718 2.21L17.26 14.5l1.16 5.153c.245 1.083-.925 1.933-1.88 1.366L12 18.322 7.458 21.02c-.954.567-2.124-.283-1.88-1.366L6.74 14.5l-3.968-3.486c-.834-.733-.387-2.108.718-2.21l5.26-.488zm4.049 6.45a1.26 1.26 0 0 1-1.046-.759l-1.266-2.94c-.129-.3-.575-.208-.575.118v9.624c0 .374.323.664.645.855l3.406 2.023a.3.3 0 0 0 .446-.324l-.871-3.864a1.26 1.26 0 0 1 .4-1.229L19 10.805a.3.3 0 0 0-.17-.524z"/></svg>